<?xml version="1.0" standalone="no"?><!-- Generator: Gravit.io --><svg xmlns="http://www.w3.org/2000/svg" xmlns:xlink="http://www.w3.org/1999/xlink" style="isolation:isolate" viewBox="0 0 90.709 90.709" width="90.709" height="90.709"><g id="loading"><rect x="0" y="0" width="90.709" height="90.709" transform="matrix(1,0,0,1,0,0)" fill="none"/><path d=" M 15.119 39.076 C 14.636 41.195 14.394 43.403 14.394 45.667 C 14.394 62.855 28.348 76.81 45.536 76.81 C 62.724 76.81 76.679 62.855 76.679 45.667 C 76.679 28.479 62.724 14.524 45.536 14.524 C 44.779 14.524 44.029 14.551 43.289 14.617 C 42.497 14.664 41.71 14.747 40.929 14.857 C 40.844 14.87 40.758 14.883 40.673 14.895 C 22.433 17.625 7.297 35.296 7.297 53.774 C 7.297 62.474 10.697 70.874 16.897 77.074 C 23.097 83.274 31.514 87.213 40.297 86.674 C 43.896 86.453 45.886 84.91 46.297 82.074 L 40.197 82.674 L 40.097 82.674 L 40.297 82.674 C 40.197 82.674 40.197 82.674 40.197 82.674 C 32.497 82.674 25.097 79.574 19.697 74.174 C 14.297 68.774 11.297 61.374 11.297 53.774 C 11.297 48.476 12.736 43.509 15.119 39.076 Z " fill="rgb(0,0,0)"/></g></svg>